<svg xmlns="http://www.w3.org/2000/svg" viewBox="0 0 665.25 239.14">
<title>Oslo World</title>
	<path fill="white" d="M439.41,54.55c0,10.91-7.62,18.53-18.53,18.53s-18.53-7.62-18.53-18.53c0-10.91,7.62-18.53,18.53-18.53 S439.41,43.64,439.41,54.55 M384.83,54.55c0,20.59,15.45,36.04,36.04,36.04s36.04-15.45,36.04-36.04s-15.45-36.04-36.04-36.04 S384.83,33.96,384.83,54.55 M333.07,18.51v72.08h48.5V73.09h-30.99V18.51H333.07z M276.86,39.93c0,13.9,9.37,18.95,18.23,21.73 c7.41,2.37,12.67,3.4,12.67,7.31c0,2.37-2.16,4.12-6.69,4.12c-4.94,0-8.13-2.16-9.16-7.62l-15.75,6.28 c2.37,12.56,12.25,18.84,24.82,18.84c14.31,0,24.3-8.03,24.3-21.42c0-13.9-9.37-18.95-18.23-21.73c-7.41-2.37-12.67-3.4-12.67-7.31 c0-2.37,2.16-4.12,6.69-4.12c4.94,0,8.13,2.16,9.16,7.62l15.75-6.28c-2.37-12.56-12.25-18.84-24.82-18.84 C286.85,18.51,276.86,26.55,276.86,39.93 M254.72,54.55c0,10.91-7.62,18.53-18.53,18.53s-18.53-7.62-18.53-18.53 c0-10.91,7.62-18.53,18.53-18.53S254.72,43.64,254.72,54.55 M200.15,54.55c0,20.59,15.45,36.04,36.04,36.04 s36.04-15.45,36.04-36.04s-15.45-36.04-36.04-36.04S200.15,33.96,200.15,54.55"></path>
	<path fill="white" d="M504.35,140.87c0,10.5-6.9,18.53-17.4,18.53h-9.58v-37.07h9.58C497.45,122.33,504.35,130.37,504.35,140.87 M459.86,104.83 v72.08h27.08c20.39,0,34.91-15.24,34.91-36.04c0-20.8-14.52-36.04-34.91-36.04H459.86z M404.93,104.83v72.08h48.5V159.4h-30.99 v-54.57H404.93z M356.52,176.91v-22.04h6.59l13.8,22.04h21.11l-15.96-24.2c8.65-3.91,14.42-12.67,14.42-22.86 c0-13.9-10.71-25.02-24.71-25.02h-32.74v72.08H356.52z M378.97,129.85c0,3.71-2.57,7.52-7.21,7.52h-15.24v-15.03h15.24 C376.4,122.33,378.97,125.94,378.97,129.85 M313.84,140.87c0,10.91-7.62,18.53-18.54,18.53c-10.91,0-18.53-7.62-18.53-18.53 s7.62-18.53,18.53-18.53C306.22,122.33,313.84,129.95,313.84,140.87 M259.27,140.87c0,20.59,15.45,36.04,36.04,36.04 c20.59,0,36.04-15.45,36.04-36.04s-15.45-36.04-36.04-36.04C274.71,104.83,259.27,120.27,259.27,140.87 M180.21,176.91l18.43-46.85 l18.43,46.85h17.51l27.49-72.08h-18.74l-17.71,46.75l-18.23-46.75h-17.51l-18.23,46.75l-17.71-46.75h-18.74l27.49,72.08H180.21z"></path>
	<path fill="white" d="M120.64,192.43c7.98,0,13.97,5.99,13.97,13.97s-5.99,13.97-13.97,13.97s-13.97-5.99-13.97-13.97 S112.66,192.43,120.64,192.43z M120.64,199.21c-4.23,0-7.18,2.95-7.18,7.18s2.95,7.18,7.18,7.18s7.18-2.95,7.18-7.18 S124.87,199.21,120.64,199.21z"></path>
	<path fill="white" d="M151.02,192.43c3.59,0,7.54,1.16,10.29,3.75l-3.31,6.18c-2.11-2.23-4.55-3.15-6.94-3.15c-4.23,0-7.26,2.95-7.26,7.18 s2.99,7.18,7.22,7.18c1.36,0,3.47-0.28,5.63-1.4l1.48,6.58c-2.11,1-4.43,1.6-7.1,1.6c-7.98,0-14.01-6.03-14.01-14.01 S143.04,192.43,151.02,192.43z"></path>
	<path fill="white" d="M180.47,199.21v21.15h-6.78v-21.15h-9.58v-6.78H190v6.78H180.47z"></path>
	<path fill="white" d="M211,192.43c6.9,0,10.29,3.27,10.29,7.66c0,3.79-2.39,5.79-4.47,6.3c2.07,0.52,4.47,2.51,4.47,6.3 c0,4.39-3.39,7.66-10.29,7.66c-4.47,0-7.9-1.64-9.62-3.51l4.27-5.23c1.6,1.6,3.71,1.96,5.39,1.96c2.31,0,3.47-0.68,3.47-1.92 c0-1.16-1.08-1.96-3.47-1.96h-2.35v-6.62h2.35c2.39,0,3.47-0.8,3.47-1.96c0-1.24-1.16-1.92-3.47-1.92c-1.68,0-3.79,0.36-5.39,1.96 l-4.27-5.23C203.1,194.06,206.53,192.43,211,192.43z"></path>
	<path fill="white" d="M238.89,192.43v27.93h-6.78v-17.24l-4.51,4.35l-4.71-4.91l10.41-10.14H238.89z"></path>
	<path fill="white" d="M253.26,216.17c0,2.39-1.8,4.19-4.19,4.19c-2.39,0-4.19-1.8-4.19-4.19c0-2.39,1.8-4.19,4.19-4.19 C251.47,211.98,253.26,213.77,253.26,216.17z"></path>
	<path fill="white" d="M288.58,205.19v6.78h-18.55v-6.78H288.58z"></path>
	<path fill="white" d="M331.6,192.43v27.93h-5.63l-13.45-16.08v16.08h-6.78v-27.93h5.63l13.45,16.08v-16.08H331.6z"></path>
	<path fill="white" d="M349.16,192.43c7.98,0,13.97,5.99,13.97,13.97s-5.99,13.97-13.97,13.97s-13.96-5.99-13.96-13.97 S341.18,192.43,349.16,192.43z M349.16,199.21c-4.23,0-7.18,2.95-7.18,7.18s2.95,7.18,7.18,7.18s7.18-2.95,7.18-7.18 S353.39,199.21,349.16,199.21z"></path>
	<path fill="white" d="M375.7,220.36l-13.17-27.93h7.5l8.78,18.59l8.78-18.59h7.5l-13.17,27.93H375.7z"></path>
	<path fill="white" d="M408.35,215.73c-1.32-2.31-1.88-5.31-1.88-8.62c0-8.14,3.31-14.68,12.29-14.68c1.72,0,3.83,0.24,6.98,1.44l-2.35,6.38 c-1.75-0.68-3.55-1.04-5.03-1.04c-2.87,0-4.47,1.48-4.75,2.95v0.04c1.08-0.52,2.71-1,3.87-1c4.95,0,9.06,3.43,9.06,9.46 s-4.11,9.7-9.54,9.7C412.78,220.36,409.99,218.56,408.35,215.73z M413.54,210.78c0,1.68,1.28,2.79,3.11,2.79 c1.84,0,3.11-1.12,3.11-2.79s-1.28-2.79-3.11-2.79C414.81,207.99,413.54,209.11,413.54,210.78z"></path>
	<path fill="white" d="M438.92,216.17c0,2.39-1.8,4.19-4.19,4.19c-2.39,0-4.19-1.8-4.19-4.19c0-2.39,1.8-4.19,4.19-4.19 C437.12,211.98,438.92,213.77,438.92,216.17z"></path>
	<path fill="white" d="M464.1,192.43c5.95,0,9.66,3.59,9.66,9.06c0,3.55-1.56,5.98-3.67,7.94l-4.55,4.15h8.22v6.78H454.4v-5.27l10.17-9.46 c1.24-1.16,2.35-2.23,2.35-3.75c0-1.6-1.2-2.67-3.15-2.67c-2.51,0-4.19,1.83-5.15,3.15l-4.95-4.03 C454.92,196.26,457.92,192.43,464.1,192.43z"></path>
	<path fill="white" d="M490.4,192.43c7.54,0,13.45,5.43,13.45,13.97s-5.91,13.97-13.45,13.97c-7.54,0-13.45-5.43-13.45-13.97 S482.86,192.43,490.4,192.43z M490.4,199.21c-3.95,0-6.66,2.47-6.66,7.18c0,4.71,2.71,7.18,6.66,7.18s6.66-2.47,6.66-7.18 C497.06,201.68,494.35,199.21,490.4,199.21z"></path>
	<path fill="white" d="M516.66,192.43c5.95,0,9.66,3.59,9.66,9.06c0,3.55-1.56,5.98-3.67,7.94l-4.55,4.15h8.22v6.78h-19.35v-5.27l10.17-9.46 c1.24-1.16,2.35-2.23,2.35-3.75c0-1.6-1.2-2.67-3.15-2.67c-2.51,0-4.19,1.83-5.15,3.15l-4.95-4.03 C507.48,196.26,510.47,192.43,516.66,192.43z"></path>
	<path fill="white" d="M539.93,192.43c5.95,0,9.66,3.59,9.66,9.06c0,3.55-1.56,5.98-3.67,7.94l-4.55,4.15h8.22v6.78h-19.35v-5.27l10.17-9.46 c1.24-1.16,2.35-2.23,2.35-3.75c0-1.6-1.2-2.67-3.15-2.67c-2.51,0-4.19,1.83-5.15,3.15l-4.95-4.03 C530.75,196.26,533.74,192.43,539.93,192.43z"></path>
</svg>